<?xml version="1.0" encoding="UTF-8" standalone="no"?>
<svg xmlns:dc="http://purl.org/dc/elements/1.1/" xmlns:cc="http://creativecommons.org/ns#" xmlns:rdf="http://www.w3.org/1999/02/22-rdf-syntax-ns#" xmlns:svg="http://www.w3.org/2000/svg" xmlns="http://www.w3.org/2000/svg" xmlns:sodipodi="http://sodipodi.sourceforge.net/DTD/sodipodi-0.dtd" xmlns:inkscape="http://www.inkscape.org/namespaces/inkscape" style="fill-opacity:1; color-rendering:auto; color-interpolation:auto; text-rendering:auto; stroke:black; stroke-linecap:square; stroke-miterlimit:10; shape-rendering:auto; stroke-opacity:1; fill:black; stroke-dasharray:none; font-weight:normal; stroke-width:1; font-family:'Dialog'; font-style:normal; stroke-linejoin:miter; font-size:12; stroke-dashoffset:0; image-rendering:auto;" id="svg1681" sodipodi:version="0.32" inkscape:version="0.47 r22583" width="678" height="270" sodipodi:docname="Prototype_UML.svg" version="1.0">
  <metadata id="metadata2035">
    <rdf:RDF>
      <cc:Work rdf:about="">
        <dc:format>image/svg+xml</dc:format>
        <dc:type rdf:resource="http://purl.org/dc/dcmitype/StillImage"/>
      </cc:Work>
    </rdf:RDF>
  </metadata>
  <sodipodi:namedview inkscape:window-height="750" inkscape:window-width="1280" inkscape:pageshadow="2" inkscape:pageopacity="0.0" borderopacity="1.0" bordercolor="#666666" pagecolor="#ffffff" id="base" inkscape:zoom="1.3677991" inkscape:cx="525.64931" inkscape:cy="175.18033" inkscape:window-x="-8" inkscape:window-y="-8" inkscape:current-layer="svg1681" showgrid="false" inkscape:window-maximized="1"/>
  <!--Generated by the Batik Graphics2D SVG Generator-->
  <defs id="genericDefs"/>
  <rect x="493" y="3.5" width="104" style="font-size:0px;fill:#cccccc;stroke:none" height="64" id="rect1778"/>
  <rect x="492" y="2.5" width="104" style="font-size:0px;fill:#999999;stroke:none" height="64" id="rect1780"/>
  <rect x="491" y="1.5" width="104" style="font-size:0px;fill:#666666;stroke:none" height="64" id="rect1782"/>
  <rect x="490" y="0.5" width="104" style="font-size:0px;fill:#333333;stroke:none" height="64" id="rect1784"/>
  <rect x="490" y="0.5" width="103" style="font-size:0px;fill:#ffffff;stroke:none" height="63" id="rect1786"/>
  <rect x="490" y="0.5" width="103" style="font-size:0px;fill:none;stroke:#000000" height="63" id="rect1788"/>
  <line x1="490" x2="592" y1="26.5" style="font-size:0px;fill:none;stroke:#000000" y2="26.5" id="line1790"/>
  <line x1="490" x2="592" y1="36.5" style="font-size:0px;fill:none;stroke:#000000" y2="36.5" id="line1792"/>
  <rect x="499" y="41.5" width="85" style="font-size:0px;fill:#ffffff;stroke:none" height="16" id="rect1794"/>
  <text x="518" y="50.5" style="font-size:8px;fill:#000000;stroke:none" xml:space="preserve" id="text1798"> operation()</text>
  <text x="530" y="14.5" style="font-size:10px;font-weight:bold;stroke:none" xml:space="preserve" id="text1804">Client</text>
  <rect x="5" y="134.5" width="186" style="font-size:0px;fill:#cccccc;stroke:none" height="64" id="rect1808"/>
  <rect x="4" y="133.5" width="186" style="font-size:0px;fill:#999999;stroke:none" height="64" id="rect1810"/>
  <rect x="3" y="132.5" width="186" style="font-size:0px;fill:#666666;stroke:none" height="64" id="rect1812"/>
  <rect x="2" y="131.5" width="186" style="font-size:0px;fill:#333333;stroke:none" height="64" id="rect1814"/>
  <rect x="2" y="131.5" width="185" style="font-size:0px;fill:#ffffff;stroke:none" height="63" id="rect1816"/>
  <rect x="2" y="131.5" width="185" style="font-size:0px;fill:none;stroke:#000000" height="63" id="rect1818"/>
  <line x1="2" x2="186" y1="157.5" style="font-size:0px;fill:none;stroke:#000000" y2="157.5" id="line1820"/>
  <line x1="2" x2="186" y1="167.5" style="font-size:0px;fill:none;stroke:#000000" y2="167.5" id="line1822"/>
  <rect x="11" y="172.5" width="167" style="font-size:0px;fill:#ffffff;stroke:none" height="16" id="rect1824"/>
  <text x="30" y="181.5" style="font-size:8px;fill:#000000;stroke:none" xml:space="preserve" id="text1828"> clone()</text>
  <text x="30" y="145.5" style="font-size:10px;font-weight:bold;stroke:none" xml:space="preserve" id="text1834">ConcretePrototype1</text>
  <rect x="225" y="134.5" width="186" style="font-size:0px;fill:#cccccc;stroke:none" height="64" id="rect1838"/>
  <rect x="224" y="133.5" width="186" style="font-size:0px;fill:#999999;stroke:none" height="64" id="rect1840"/>
  <rect x="223" y="132.5" width="186" style="font-size:0px;fill:#666666;stroke:none" height="64" id="rect1842"/>
  <rect x="222" y="131.5" width="186" style="font-size:0px;fill:#333333;stroke:none" height="64" id="rect1844"/>
  <rect x="222" y="131.5" width="185" style="font-size:0px;fill:#ffffff;stroke:none" height="63" id="rect1846"/>
  <rect x="222" y="131.5" width="185" style="font-size:0px;fill:none;stroke:#000000" height="63" id="rect1848"/>
  <line x1="222" x2="406" y1="157.5" style="font-size:0px;fill:none;stroke:#000000" y2="157.5" id="line1850"/>
  <line x1="222" x2="406" y1="167.5" style="font-size:0px;fill:none;stroke:#000000" y2="167.5" id="line1852"/>
  <rect x="231" y="172.5" width="167" style="font-size:0px;fill:#ffffff;stroke:none" height="16" id="rect1854"/>
  <text x="250" y="181.5" style="font-size:8px;fill:#000000;stroke:none" xml:space="preserve" id="text1858"> clone()</text>
  <text x="250" y="145.5" style="font-size:10px;font-weight:bold;stroke:none" xml:space="preserve" id="text1864">ConcretePrototype2</text>
  <rect x="152" y="3.5" width="111" style="font-size:0px;fill:#cccccc;stroke:none" height="77" id="rect1868"/>
  <rect x="151" y="2.5" width="111" style="font-size:0px;fill:#999999;stroke:none" height="77" id="rect1870"/>
  <rect x="150" y="1.5" width="111" style="font-size:0px;fill:#666666;stroke:none" height="77" id="rect1872"/>
  <rect x="149" y="0.5" width="111" style="font-size:0px;fill:#333333;stroke:none" height="77" id="rect1874"/>
  <rect x="149" y="0.5" width="110" style="font-size:0px;fill:#ffffff;stroke:none" height="76" id="rect1876"/>
  <rect x="149" y="0.5" width="110" style="font-size:0px;fill:none;stroke:#000000" height="76" id="rect1878"/>
  <line x1="149" x2="258" y1="39.5" style="font-size:0px;fill:none;stroke:#000000" y2="39.5" id="line1880"/>
  <line x1="149" x2="258" y1="49.5" style="font-size:0px;fill:none;stroke:#000000" y2="49.5" id="line1882"/>
  <rect x="158" y="54.5" width="92" style="font-size:0px;fill:#ffffff;stroke:none" height="16" id="rect1884"/>
  <text x="177" y="63.5" style="font-size:8px;fill:#000000;stroke:none" xml:space="preserve" id="text1888"> clone()</text>
  <text x="172" y="12.5" style="font-size:8px;fill:#000000;stroke:none" xml:space="preserve" id="text1890">«interface»</text>
  <text x="177" y="27.5" style="font-size:10px;font-weight:bold;stroke:none" xml:space="preserve" id="text1896">Prototype</text>
  <polygon style="font-size:8px;fill:#ffffff;stroke:none" points="159,270 159,230 149,220 0,220 0,220 0,270 " id="polygon1900" transform="translate(1,-0.5)"/>
  <polygon style="font-size:8px;fill:#000000;stroke:none" points="149,230 159,230 159,230 149,220 " id="polygon1902" transform="translate(1,-0.5)"/>
  <text x="11" y="232.5" style="font-size:8px;fill:#000000;stroke:none" xml:space="preserve" id="text1904">return copy of self</text>
  <polygon style="font-size:8px;fill:none;stroke:#000000" points="159,270 159,230 149,220 0,220 0,220 0,270 " id="polygon1906" transform="translate(1,-0.5)"/>
  <line x1="150" x2="150" y1="219.5" style="font-size:8px;fill:none;stroke:#000000" y2="229.5" id="line1908"/>
  <line x1="150" x2="160" y1="229.5" style="font-size:8px;fill:none;stroke:#000000" y2="229.5" id="line1910"/>
  <polygon style="font-size:8px;fill:#ffffff;stroke:none" points="379,270 379,230 369,220 220,220 220,220 220,270 " id="polygon1912" transform="translate(1,-0.5)"/>
  <polygon style="font-size:8px;fill:#000000;stroke:none" points="369,230 379,230 379,230 369,220 " id="polygon1914" transform="translate(1,-0.5)"/>
  <text x="231" y="232.5" style="font-size:8px;fill:#000000;stroke:none" xml:space="preserve" id="text1916">return copy of self</text>
  <polygon style="font-size:8px;fill:none;stroke:#000000" points="379,270 379,230 369,220 220,220 220,220 220,270 " id="polygon1918" transform="translate(1,-0.5)"/>
  <line x1="370" x2="370" y1="219.5" style="font-size:8px;fill:none;stroke:#000000" y2="229.5" id="line1920"/>
  <line x1="370" x2="380" y1="229.5" style="font-size:8px;fill:none;stroke:#000000" y2="229.5" id="line1922"/>
  <polygon style="font-size:8px;fill:#ffffff;stroke:none" points="676,131 676,100 666,90 488,90 488,90 488,131 " id="polygon1924" transform="translate(1,-0.5)"/>
  <polygon style="font-size:8px;fill:#000000;stroke:none" points="666,100 676,100 676,100 666,90 " id="polygon1926" transform="translate(1,-0.5)"/>
  <text x="499" y="102.5" style="font-size:8px;fill:#000000;stroke:none" xml:space="preserve" id="text1928">Object p = prototype.clone();</text>
  <polygon style="font-size:8px;fill:none;stroke:#000000" points="676,131 676,100 666,90 488,90 488,90 488,131 " id="polygon1930" transform="translate(1,-0.5)"/>
  <line x1="667" x2="667" y1="89.5" style="font-size:8px;fill:none;stroke:#000000" y2="99.5" id="line1932"/>
  <line x1="667" x2="677" y1="99.5" style="font-size:8px;fill:none;stroke:#000000" y2="99.5" id="line1934"/>
  <line x1="96" x2="96" y1="110.5" style="font-size:8px;fill:#000000;fill-opacity:1;stroke:#000000" y2="124.5" id="line1936"/>
  <line x1="96" x2="96" y1="130.5" style="font-size:8px;fill:#000000;fill-opacity:1;stroke:#000000" y2="130.5" id="line1938"/>
  <line x1="96" x2="110" y1="110.5" style="font-size:8px;fill:#000000;fill-opacity:1;stroke:#000000" y2="110.5" id="line1940"/>
  <line x1="116" x2="130" y1="110.5" style="font-size:8px;fill:#000000;fill-opacity:1;stroke:#000000" y2="110.5" id="line1942"/>
  <line x1="136" x2="150" y1="110.5" style="font-size:8px;fill:#000000;fill-opacity:1;stroke:#000000" y2="110.5" id="line1944"/>
  <line x1="156" x2="170" y1="110.5" style="font-size:8px;fill:#000000;fill-opacity:1;stroke:#000000" y2="110.5" id="line1946"/>
  <line x1="176" x2="190" y1="110.5" style="font-size:8px;fill:#000000;fill-opacity:1;stroke:#000000" y2="110.5" id="line1948"/>
  <line x1="196" x2="205" y1="110.5" style="font-size:8px;fill:#000000;fill-opacity:1;stroke:#000000" y2="110.5" id="line1950"/>
  <line x1="205" x2="205" y1="80.5" style="font-size:8px;fill:#000000;fill-opacity:1;stroke:#000000" y2="94.5" id="line1952"/>
  <line x1="205" x2="205" y1="100.5" style="font-size:8px;fill:#000000;fill-opacity:1;stroke:#000000" y2="110.5" id="line1954"/>
  <polygon style="font-size:8px;fill:#000000;fill-opacity:1;stroke:none" points="198,105 204,81 204,81 210,105 " id="polygon1956" transform="translate(1,-0.5)"/>
  <polygon style="font-size:8px;fill:#ffffff;fill-opacity:1;stroke:#000000" points="198,105 204,81 204,81 210,105 " id="polygon1958" transform="translate(1,-0.5)"/>
  <line x1="316" x2="316" y1="110.5" style="font-size:8px;fill:#000000;fill-opacity:1;stroke:#000000" y2="124.5" id="line1960"/>
  <line x1="316" x2="316" y1="130.5" style="font-size:8px;fill:#000000;fill-opacity:1;stroke:#000000" y2="130.5" id="line1962"/>
  <line x1="205" x2="219" y1="110.5" style="font-size:8px;fill:#000000;fill-opacity:1;stroke:#000000" y2="110.5" id="line1964"/>
  <line x1="225" x2="239" y1="110.5" style="font-size:8px;fill:#000000;fill-opacity:1;stroke:#000000" y2="110.5" id="line1966"/>
  <line x1="245" x2="259" y1="110.5" style="font-size:8px;fill:#000000;fill-opacity:1;stroke:#000000" y2="110.5" id="line1968"/>
  <line x1="265" x2="279" y1="110.5" style="font-size:8px;fill:#000000;fill-opacity:1;stroke:#000000" y2="110.5" id="line1970"/>
  <line x1="285" x2="299" y1="110.5" style="font-size:8px;fill:#000000;fill-opacity:1;stroke:#000000" y2="110.5" id="line1972"/>
  <line x1="305" x2="316" y1="110.5" style="font-size:8px;fill:#000000;fill-opacity:1;stroke:#000000" y2="110.5" id="line1974"/>
  <line x1="263" x2="277" y1="33.5" style="font-size:8px;fill:#000000;fill-opacity:1;stroke:#000000" y2="33.5" id="line1976"/>
  <line x1="283" x2="297" y1="33.5" style="font-size:8px;fill:#000000;fill-opacity:1;stroke:#000000" y2="33.5" id="line1978"/>
  <line x1="303" x2="317" y1="33.5" style="font-size:8px;fill:#000000;fill-opacity:1;stroke:#000000" y2="33.5" id="line1980"/>
  <line x1="323" x2="337" y1="33.5" style="font-size:8px;fill:#000000;fill-opacity:1;stroke:#000000" y2="33.5" id="line1982"/>
  <line x1="343" x2="357" y1="33.5" style="font-size:8px;fill:#000000;fill-opacity:1;stroke:#000000" y2="33.5" id="line1984"/>
  <line x1="363" x2="377" y1="33.5" style="font-size:8px;fill:#000000;fill-opacity:1;stroke:#000000" y2="33.5" id="line1986"/>
  <line x1="383" x2="397" y1="33.5" style="font-size:8px;fill:#000000;fill-opacity:1;stroke:#000000" y2="33.5" id="line1988"/>
  <line x1="403" x2="417" y1="33.5" style="font-size:8px;fill:#000000;fill-opacity:1;stroke:#000000" y2="33.5" id="line1990"/>
  <line x1="423" x2="437" y1="33.5" style="font-size:8px;fill:#000000;fill-opacity:1;stroke:#000000" y2="33.5" id="line1992"/>
  <line x1="443" x2="457" y1="33.5" style="font-size:8px;fill:#000000;fill-opacity:1;stroke:#000000" y2="33.5" id="line1994"/>
  <line x1="463" x2="477" y1="33.5" style="font-size:8px;fill:#000000;fill-opacity:1;stroke:#000000" y2="33.5" id="line1996"/>
  <line x1="483" x2="489" y1="33.5" style="font-size:8px;fill:#000000;fill-opacity:1;stroke:#000000" y2="33.5" id="line1998"/>
  <text x="355" y="28.5" style="font-size:8px;fill:#000000;stroke:none" xml:space="preserve" id="text2000">«import»</text>
  <path d="m 268,28.5 -5,5 5,5" style="font-size:8px;fill:#000000;fill-opacity:1;stroke:#000000" id="path2002"/>
  <line x1="11" x2="11" y1="177.5" style="font-size:8px;fill:#000000;fill-opacity:1;stroke:#000000" y2="191.5" id="line2004"/>
  <line x1="11" x2="11" y1="197.5" style="font-size:8px;fill:#000000;fill-opacity:1;stroke:#000000" y2="211.5" id="line2006"/>
  <line x1="11" x2="11" y1="217.5" style="font-size:8px;fill:#000000;fill-opacity:1;stroke:#000000" y2="219.5" id="line2008"/>
  <polygon style="font-size:8px;fill:#000000;fill-opacity:1;stroke:none" points="11,178 12,179 13,179 13,179 13,180 14,181 14,181 14,182 14,183 14,183 13,184 13,185 13,185 12,185 11,186 11,186 10,186 9,186 9,186 8,185 7,185 7,185 7,184 6,183 6,183 6,182 6,181 6,181 7,180 7,179 7,179 8,179 9,178 9,178 10,178 10,178 11,178 " id="polygon2010" transform="translate(1,-0.5)"/>
  <path style="font-size:12px;font-style:normal;font-weight:normal;fill:#5fbf9f;fill-opacity:1;fill-rule:nonzero;stroke:#007300;stroke-width:0.79999995;stroke-linecap:square;stroke-linejoin:miter;stroke-miterlimit:4;stroke-opacity:1;stroke-dasharray:none;stroke-dashoffset:0;font-family:Dialog" d="m 23.628734,181.61521 c 0,2.03099 -1.827091,3.67742 -4.080924,3.67742 -2.253832,0 -4.080924,-1.64643 -4.080924,-3.67742 0,-2.03098 1.827092,-3.67741 4.080924,-3.67741 2.253833,0 4.080924,1.64643 4.080924,3.67741 z" id="path3053-8"/>
  <polygon style="font-size:8px;fill:#ffffff;fill-opacity:1;stroke:#000000" points="11,178 12,179 13,179 13,179 13,180 14,181 14,181 14,182 14,183 14,183 13,184 13,185 13,185 12,185 11,186 11,186 10,186 9,186 9,186 8,185 7,185 7,185 7,184 6,183 6,183 6,182 6,181 6,181 7,180 7,179 7,179 8,179 9,178 9,178 10,178 10,178 11,178 " id="polygon2012" transform="translate(1,-0.5)"/>
  <line x1="231" x2="231" y1="177.5" style="font-size:8px;fill:#000000;fill-opacity:1;stroke:#000000" y2="191.5" id="line2014"/>
  <line x1="231" x2="231" y1="197.5" style="font-size:8px;fill:#000000;fill-opacity:1;stroke:#000000" y2="211.5" id="line2016"/>
  <line x1="231" x2="231" y1="217.5" style="font-size:8px;fill:#000000;fill-opacity:1;stroke:#000000" y2="219.5" id="line2018"/>
  <polygon style="font-size:8px;fill:#000000;fill-opacity:1;stroke:none" points="231,178 232,179 233,179 233,179 233,180 234,181 234,181 234,182 234,183 234,183 233,184 233,185 233,185 232,185 231,186 231,186 230,186 229,186 229,186 228,185 227,185 227,185 227,184 226,183 226,183 226,182 226,181 226,181 227,180 227,179 227,179 228,179 229,178 229,178 230,178 230,178 231,178 " id="polygon2020" transform="translate(1,-0.5)"/>
  <path style="font-size:12px;font-style:normal;font-weight:normal;fill:#5fbf9f;fill-opacity:1;fill-rule:nonzero;stroke:#007300;stroke-width:0.79999995;stroke-linecap:square;stroke-linejoin:miter;stroke-miterlimit:4;stroke-opacity:1;stroke-dasharray:none;stroke-dashoffset:0;font-family:Dialog" d="m 243.01404,181.81087 c 0,2.03099 -1.82709,3.67742 -4.08092,3.67742 -2.25384,0 -4.08093,-1.64643 -4.08093,-3.67742 0,-2.03098 1.82709,-3.67741 4.08093,-3.67741 2.25383,0 4.08092,1.64643 4.08092,3.67741 z" id="path3053-8-5"/>
  <polygon style="font-size:8px;fill:#ffffff;fill-opacity:1;stroke:#000000" points="231,178 232,179 233,179 233,179 233,180 234,181 234,181 234,182 234,183 234,183 233,184 233,185 233,185 232,185 231,186 231,186 230,186 229,186 229,186 228,185 227,185 227,185 227,184 226,183 226,183 226,182 226,181 226,181 227,180 227,179 227,179 228,179 229,178 229,178 230,178 230,178 231,178 " id="polygon2022" transform="translate(1,-0.5)"/>
  <line x1="499" x2="499" y1="46.5" style="font-size:8px;fill:#000000;fill-opacity:1;stroke:#000000" y2="60.5" id="line2024"/>
  <line x1="499" x2="499" y1="66.5" style="font-size:8px;fill:#000000;fill-opacity:1;stroke:#000000" y2="80.5" id="line2026"/>
  <line x1="499" x2="499" y1="86.5" style="font-size:8px;fill:#000000;fill-opacity:1;stroke:#000000" y2="89.5" id="line2028"/>
  <polygon style="font-size:8px;fill:#000000;fill-opacity:1;stroke:none" points="499,47 500,48 501,48 501,48 501,49 502,50 502,50 502,51 502,52 502,52 501,53 501,54 501,54 500,54 499,55 499,55 498,55 497,55 497,55 496,54 495,54 495,54 495,53 494,52 494,52 494,51 494,50 494,50 495,49 495,48 495,48 496,48 497,47 497,47 498,47 498,47 499,47 " id="polygon2030" transform="translate(1,-0.5)"/>
  <polygon style="font-size:8px;fill:#ffffff;fill-opacity:1;stroke:#000000" points="499,47 500,48 501,48 501,48 501,49 502,50 502,50 502,51 502,52 502,52 501,53 501,54 501,54 500,54 499,55 499,55 498,55 497,55 497,55 496,54 495,54 495,54 495,53 494,52 494,52 494,51 494,50 494,50 495,49 495,48 495,48 496,48 497,47 497,47 498,47 498,47 499,47 " id="polygon2032" transform="translate(1,-0.5)"/>
  <path style="fill:#3f9f3f;fill-opacity:1;fill-rule:nonzero;stroke:#007300;stroke-width:0.79999995;stroke-miterlimit:4;stroke-opacity:1;stroke-dashoffset:0" d="m 24.309129,142.23999 c 0,3.73493 -3.027759,6.76269 -6.762689,6.76269 -3.734931,0 -6.76269,-3.02776 -6.76269,-6.76269 0,-3.73492 3.027759,-6.76267 6.76269,-6.76267 3.73493,0 6.762689,3.02775 6.762689,6.76267 z" id="path3053"/>
  <g transform="matrix(0.98590579,0,0,1.0142957,63.057507,0.54832614)" style="font-size:14.27780628px;font-weight:normal;fill:#ffffff;fill-opacity:1;stroke:none;font-family:Times New Roman;-inkscape-font-specification:Times New Roman" id="text3828">
    <path d="m -43.191549,138.25514 -0.970602,0 c -0.01447,-0.22774 -0.07411,-0.43288 -0.178938,-0.61544 -0.104837,-0.18255 -0.242203,-0.33799 -0.412098,-0.46632 -0.169905,-0.12832 -0.368724,-0.22683 -0.596457,-0.29552 -0.227743,-0.0687 -0.473556,-0.10302 -0.737439,-0.10302 -0.361493,0 -0.687737,0.0633 -0.978733,0.18978 -0.291002,0.12653 -0.191019,0.064 -0.395258,0.30802 -0.842863,1.71274 -0.730691,3.48382 -0.07223,4.79901 0.202432,0.24581 0.170163,0.16258 0.459357,0.29091 0.289189,0.12833 0.610914,0.1925 0.965177,0.1925 0.278343,0 0.532289,-0.0343 0.76184,-0.10303 0.229541,-0.0687 0.42836,-0.1708 0.596458,-0.30636 0.168087,-0.13556 0.302742,-0.30094 0.403964,-0.49615 0.101212,-0.1952 0.162665,-0.42113 0.18436,-0.67779 l 0.970599,0 c -0.03254,0.37957 -0.127431,0.71756 -0.284673,1.01398 -0.157254,0.29642 -0.363303,0.54766 -0.618147,0.75371 -0.254856,0.20604 -0.55218,0.36239 -0.891975,0.46903 -0.339805,0.10664 -0.708524,0.15996 -1.106159,0.15996 -0.509703,0 -0.970602,-0.0868 -1.382697,-0.26028 -0.4121,-0.17351 -0.762745,-0.42203 -1.051935,-0.74557 -0.289193,-0.32353 -0.511509,-0.71394 -0.666948,-1.17122 -0.155441,-0.45729 -0.233162,-0.96789 -0.233161,-1.53182 -10e-7,-0.56392 0.07862,-1.07452 0.235872,-1.53181 0.157247,-0.45728 0.380467,-0.84678 0.669659,-1.16851 0.28919,-0.32172 0.639835,-0.57025 1.051935,-0.74558 0.412095,-0.17531 0.871187,-0.26297 1.377275,-0.26298 0.37956,1e-5 0.737435,0.0551 1.073624,0.16538 0.336181,0.11026 0.634409,0.2657 0.894687,0.46632 0.260267,0.20064 0.472642,0.44283 0.637126,0.7266 0.164471,0.28377 0.262977,0.59917 0.295517,0.9462 z" style="font-size:11.10496044px;font-variant:normal;font-stretch:normal;fill:#ffffff;fill-opacity:1;font-family:Raavi;-inkscape-font-specification:Raavi" id="path3833" sodipodi:nodetypes="ccsssssccsssssccsssssssssssssssc"/>
  </g>
  <path style="fill:#bf9f3f;fill-opacity:1;fill-rule:nonzero;stroke:#725034;stroke-width:0.80000001;stroke-miterlimit:4;stroke-opacity:1;stroke-dashoffset:0" d="m 508.22806,47.041603 3.87058,6.984226 -7.93464,-0.05189 4.06406,-6.932332 z" id="path3835" sodipodi:nodetypes="cccc"/>
  <path style="font-size:12px;font-style:normal;font-weight:normal;fill:#3f9f3f;fill-opacity:1;fill-rule:nonzero;stroke:#007300;stroke-width:0.79999995;stroke-linecap:square;stroke-linejoin:miter;stroke-miterlimit:4;stroke-opacity:1;stroke-dasharray:none;stroke-dashoffset:0;font-family:Dialog" d="m 244.37068,142.42278 c 0,3.73493 -3.02776,6.76269 -6.76269,6.76269 -3.73493,0 -6.76269,-3.02776 -6.76269,-6.76269 0,-3.73492 3.02776,-6.76267 6.76269,-6.76267 3.73493,0 6.76269,3.02775 6.76269,6.76267 z" id="path3053-1"/>
  <g transform="matrix(0.98590579,0,0,1.0142957,283.11906,0.73111494)" style="font-size:14.27780628px;font-style:normal;font-weight:normal;fill:#ffffff;fill-opacity:1;stroke:none;font-family:Times New Roman;-inkscape-font-specification:Times New Roman" id="text3828-7">
    <path d="m -43.191549,138.25514 -0.970602,0 c -0.01447,-0.22774 -0.07411,-0.43288 -0.178938,-0.61544 -0.104837,-0.18255 -0.242203,-0.33799 -0.412098,-0.46632 -0.169905,-0.12832 -0.368724,-0.22683 -0.596457,-0.29552 -0.227743,-0.0687 -0.473556,-0.10302 -0.737439,-0.10302 -0.361493,0 -0.687737,0.0633 -0.978733,0.18978 -0.291002,0.12653 -0.191019,0.064 -0.395258,0.30802 -0.842863,1.71274 -0.730691,3.48382 -0.07223,4.79901 0.202432,0.24581 0.170163,0.16258 0.459357,0.29091 0.289189,0.12833 0.610914,0.1925 0.965177,0.1925 0.278343,0 0.532289,-0.0343 0.76184,-0.10303 0.229541,-0.0687 0.42836,-0.1708 0.596458,-0.30636 0.168087,-0.13556 0.302742,-0.30094 0.403964,-0.49615 0.101212,-0.1952 0.162665,-0.42113 0.18436,-0.67779 l 0.970599,0 c -0.03254,0.37957 -0.127431,0.71756 -0.284673,1.01398 -0.157254,0.29642 -0.363303,0.54766 -0.618147,0.75371 -0.254856,0.20604 -0.55218,0.36239 -0.891975,0.46903 -0.339805,0.10664 -0.708524,0.15996 -1.106159,0.15996 -0.509703,0 -0.970602,-0.0868 -1.382697,-0.26028 -0.4121,-0.17351 -0.762745,-0.42203 -1.051935,-0.74557 -0.289193,-0.32353 -0.511509,-0.71394 -0.666948,-1.17122 -0.155441,-0.45729 -0.233162,-0.96789 -0.233161,-1.53182 -10e-7,-0.56392 0.07862,-1.07452 0.235872,-1.53181 0.157247,-0.45728 0.380467,-0.84678 0.669659,-1.16851 0.28919,-0.32172 0.639835,-0.57025 1.051935,-0.74558 0.412095,-0.17531 0.871187,-0.26297 1.377275,-0.26298 0.37956,1e-5 0.737435,0.0551 1.073624,0.16538 0.336181,0.11026 0.634409,0.2657 0.894687,0.46632 0.260267,0.20064 0.472642,0.44283 0.637126,0.7266 0.164471,0.28377 0.262977,0.59917 0.295517,0.9462 z" style="font-size:11.10496044px;font-variant:normal;font-stretch:normal;fill:#ffffff;fill-opacity:1;font-family:Raavi;-inkscape-font-specification:Raavi" id="path3833-4" sodipodi:nodetypes="ccsssssccsssssccsssssssssssssssc"/>
  </g>
  <path style="font-size:12px;font-style:normal;font-weight:normal;fill:#3f9f3f;fill-opacity:1;fill-rule:nonzero;stroke:#007300;stroke-width:0.79999995;stroke-linecap:square;stroke-linejoin:miter;stroke-miterlimit:4;stroke-opacity:1;stroke-dasharray:none;stroke-dashoffset:0;font-family:Dialog" d="m 524.74812,11.190052 c 0,3.73493 -3.02776,6.76269 -6.76269,6.76269 -3.73493,0 -6.76269,-3.02776 -6.76269,-6.76269 0,-3.7349204 3.02776,-6.7626704 6.76269,-6.7626704 3.73493,0 6.76269,3.02775 6.76269,6.7626704 z" id="path3053-9"/>
  <g transform="matrix(0.98590579,0,0,1.0142957,563.49649,-130.50161)" style="font-size:14.27780628px;font-style:normal;font-weight:normal;fill:#ffffff;fill-opacity:1;stroke:none;font-family:Times New Roman;-inkscape-font-specification:Times New Roman" id="text3828-4">
    <path d="m -43.191549,138.25514 -0.970602,0 c -0.01447,-0.22774 -0.07411,-0.43288 -0.178938,-0.61544 -0.104837,-0.18255 -0.242203,-0.33799 -0.412098,-0.46632 -0.169905,-0.12832 -0.368724,-0.22683 -0.596457,-0.29552 -0.227743,-0.0687 -0.473556,-0.10302 -0.737439,-0.10302 -0.361493,0 -0.687737,0.0633 -0.978733,0.18978 -0.291002,0.12653 -0.191019,0.064 -0.395258,0.30802 -0.842863,1.71274 -0.730691,3.48382 -0.07223,4.79901 0.202432,0.24581 0.170163,0.16258 0.459357,0.29091 0.289189,0.12833 0.610914,0.1925 0.965177,0.1925 0.278343,0 0.532289,-0.0343 0.76184,-0.10303 0.229541,-0.0687 0.42836,-0.1708 0.596458,-0.30636 0.168087,-0.13556 0.302742,-0.30094 0.403964,-0.49615 0.101212,-0.1952 0.162665,-0.42113 0.18436,-0.67779 l 0.970599,0 c -0.03254,0.37957 -0.127431,0.71756 -0.284673,1.01398 -0.157254,0.29642 -0.363303,0.54766 -0.618147,0.75371 -0.254856,0.20604 -0.55218,0.36239 -0.891975,0.46903 -0.339805,0.10664 -0.708524,0.15996 -1.106159,0.15996 -0.509703,0 -0.970602,-0.0868 -1.382697,-0.26028 -0.4121,-0.17351 -0.762745,-0.42203 -1.051935,-0.74557 -0.289193,-0.32353 -0.511509,-0.71394 -0.666948,-1.17122 -0.155441,-0.45729 -0.233162,-0.96789 -0.233161,-1.53182 -10e-7,-0.56392 0.07862,-1.07452 0.235872,-1.53181 0.157247,-0.45728 0.380467,-0.84678 0.669659,-1.16851 0.28919,-0.32172 0.639835,-0.57025 1.051935,-0.74558 0.412095,-0.17531 0.871187,-0.26297 1.377275,-0.26298 0.37956,1e-5 0.737435,0.0551 1.073624,0.16538 0.336181,0.11026 0.634409,0.2657 0.894687,0.46632 0.260267,0.20064 0.472642,0.44283 0.637126,0.7266 0.164471,0.28377 0.262977,0.59917 0.295517,0.9462 z" style="font-size:11.10496044px;font-variant:normal;font-stretch:normal;fill:#ffffff;fill-opacity:1;font-family:Raavi;-inkscape-font-specification:Raavi" id="path3833-8" sodipodi:nodetypes="ccsssssccsssssccsssssssssssssssc"/>
  </g>
  <path style="font-size:12px;font-style:normal;font-weight:normal;fill:#5fbf9f;fill-opacity:1;fill-rule:nonzero;stroke:#007300;stroke-width:0.79999995;stroke-linecap:square;stroke-linejoin:miter;stroke-miterlimit:4;stroke-opacity:1;stroke-dasharray:none;stroke-dashoffset:0;font-family:Dialog" d="m 170.13236,63.737979 c 0,2.03099 -1.82709,3.67742 -4.08093,3.67742 -2.25383,0 -4.08092,-1.64643 -4.08092,-3.67742 0,-2.03098 1.82709,-3.67741 4.08092,-3.67741 2.25384,0 4.08093,1.64643 4.08093,3.67741 z" id="path3053-8-1"/>
  <path style="font-size:12px;font-style:normal;font-weight:normal;fill:#9f3f7f;fill-opacity:1;fill-rule:nonzero;stroke:#794d8d;stroke-width:0.79999995;stroke-linecap:square;stroke-linejoin:miter;stroke-miterlimit:4;stroke-opacity:1;stroke-dasharray:none;stroke-dashoffset:0;font-family:Dialog" d="m 170.83504,24.117636 c 0,3.73493 -3.02776,6.76269 -6.76269,6.76269 -3.73493,0 -6.76269,-3.02776 -6.76269,-6.76269 0,-3.73492 3.02776,-6.76267 6.76269,-6.76267 3.73493,0 6.76269,3.02775 6.76269,6.76267 z" id="path3053-5"/>
  <text xml:space="preserve" style="font-size:11.36081028px;font-style:normal;font-weight:normal;fill:#ffffff;fill-opacity:1;stroke:none;font-family:Tahoma;-inkscape-font-specification:Tahoma" x="153.06931" y="29.569963" id="text3972" transform="scale(1.0562626,0.94673428)"><tspan sodipodi:role="line" id="tspan3974" x="153.06931" y="29.569963">I</tspan></text>
<style xmlns="http://www.w3.org/1999/xhtml" charset="utf-8" type="text/css" class="firebugResetStyles">/* See license.txt for terms of usage */
/** reset styling **/
.firebugResetStyles {
    z-index: 2147483646 !important;
    top: 0 !important;
    left: 0 !important;
    display: block !important;
    border: 0 none !important;
    margin: 0 !important;
    padding: 0 !important;
    outline: 0 !important;
    min-width: 0 !important;
    max-width: none !important;
    min-height: 0 !important;
    max-height: none !important;
    position: fixed !important;
    transform: rotate(0deg) !important;
    transform-origin: 50% 50% !important;
    border-radius: 0 !important;
    box-shadow: none !important;
    background: transparent none !important;
    pointer-events: none !important;
    white-space: normal !important;
}
style.firebugResetStyles {
    display: none !important;
}

.firebugBlockBackgroundColor {
    background-color: transparent !important;
}

.firebugResetStyles:before, .firebugResetStyles:after {
    content: "" !important;
}
/**actual styling to be modified by firebug theme**/
.firebugCanvas {
    display: none !important;
}

/* * * * * * * * * * * * * * * * * * * * * * * * * * * * * * * * * * * * * * * * * * * * * * * * */
.firebugLayoutBox {
    width: auto !important;
    position: static !important;
}

.firebugLayoutBoxOffset {
    opacity: 0.8 !important;
    position: fixed !important;
}

.firebugLayoutLine {
    opacity: 0.4 !important;
    background-color: #000000 !important;
}

.firebugLayoutLineLeft, .firebugLayoutLineRight {
    width: 1px !important;
    height: 100% !important;
}

.firebugLayoutLineTop, .firebugLayoutLineBottom {
    width: 100% !important;
    height: 1px !important;
}

.firebugLayoutLineTop {
    margin-top: -1px !important;
    border-top: 1px solid #999999 !important;
}

.firebugLayoutLineRight {
    border-right: 1px solid #999999 !important;
}

.firebugLayoutLineBottom {
    border-bottom: 1px solid #999999 !important;
}

.firebugLayoutLineLeft {
    margin-left: -1px !important;
    border-left: 1px solid #999999 !important;
}

/* * * * * * * * * * * * * * * * * * * * * * * * * * * * * * * * * * * * * * * * * * * * * * * * */
.firebugLayoutBoxParent {
    border-top: 0 none !important;
    border-right: 1px dashed #E00 !important;
    border-bottom: 1px dashed #E00 !important;
    border-left: 0 none !important;
    position: fixed !important;
    width: auto !important;
}

.firebugRuler{
    position: absolute !important;
}

.firebugRulerH {
    top: -15px !important;
    left: 0 !important;
    width: 100% !important;
    height: 14px !important;
    background: url("data:image/png,%89PNG%0D%0A%1A%0A%00%00%00%0DIHDR%00%00%13%88%00%00%00%0E%08%02%00%00%00L%25a%0A%00%00%00%04gAMA%00%00%D6%D8%D4OX2%00%00%00%19tEXtSoftware%00Adobe%20ImageReadyq%C9e%3C%00%00%04%F8IDATx%DA%EC%DD%D1n%E2%3A%00E%D1%80%F8%FF%EF%E2%AF2%95%D0D4%0E%C1%14%B0%8Fa-%E9%3E%CC%9C%87n%B9%81%A6W0%1C%A6i%9A%E7y%0As8%1CT%A9R%A5J%95*U%AAT%A9R%A5J%95*U%AAT%A9R%A5J%95*U%AAT%A9R%A5J%95*U%AAT%A9R%A5J%95*U%AAT%A9R%A5J%95*U%AAT%A9R%A5J%95*U%AATE9%FE%FCw%3E%9F%AF%2B%2F%BA%97%FDT%1D~K(%5C%9D%D5%EA%1B%5C%86%B5%A9%BDU%B5y%80%ED%AB*%03%FAV9%AB%E1%CEj%E7%82%EF%FB%18%BC%AEJ8%AB%FA'%D2%BEU9%D7U%ECc0%E1%A2r%5DynwVi%CFW%7F%BB%17%7Dy%EACU%CD%0E%F0%FA%3BX%FEbV%FEM%9B%2B%AD%BE%AA%E5%95v%AB%AA%E3E5%DCu%15rV9%07%B5%7F%B5w%FCm%BA%BE%AA%FBY%3D%14%F0%EE%C7%60%0EU%AAT%A9R%A5J%95*U%AAT%A9R%A5J%95*U%AAT%A9R%A5J%95*U%AAT%A9R%A5J%95*U%AAT%A9R%A5JU%88%D3%F5%1F%AE%DF%3B%1B%F2%3E%DAUCNa%F92%D02%AC%7Dm%F9%3A%D4%F2%8B6%AE*%BF%5C%C2Ym~9g5%D0Y%95%17%7C%C8c%B0%7C%18%26%9CU%CD%13i%F7%AA%90%B3Z%7D%95%B4%C7%60%E6E%B5%BC%05%B4%FBY%95U%9E%DB%FD%1C%FC%E0%9F%83%7F%BE%17%7DkjMU%E3%03%AC%7CWj%DF%83%9An%BCG%AE%F1%95%96yQ%0Dq%5Dy%00%3Et%B5'%FC6%5DS%95pV%95%01%81%FF'%07%00%00%00%00%00%00%00%00%00%F8x%C7%F0%BE%9COp%5D%C9%7C%AD%E7%E6%EBV%FB%1E%E0(%07%E5%AC%C6%3A%ABi%9C%8F%C6%0E9%AB%C0'%D2%8E%9F%F99%D0E%B5%99%14%F5%0D%CD%7F%24%C6%DEH%B8%E9rV%DFs%DB%D0%F7%00k%FE%1D%84%84%83J%B8%E3%BA%FB%EF%20%84%1C%D7%AD%B0%8E%D7U%C8Y%05%1E%D4t%EF%AD%95Q%BF8w%BF%E9%0A%BF%EB%03%00%00%00%00%00%00%00%00%00%B8vJ%8E%BB%F5%B1u%8Cx%80%E1o%5E%CA9%AB%CB%CB%8E%03%DF%1D%B7T%25%9C%D5(%EFJM8%AB%CC'%D2%B2*%A4s%E7c6%FB%3E%FA%A2%1E%80~%0E%3E%DA%10x%5D%95Uig%15u%15%ED%7C%14%B6%87%A1%3B%FCo8%A8%D8o%D3%ADO%01%EDx%83%1A~%1B%9FpP%A3%DC%C6'%9C%95gK%00%00%00%00%00%00%00%00%00%20%D9%C9%11%D0%C0%40%AF%3F%EE%EE%92%94%D6%16X%B5%BCMH%15%2F%BF%D4%A7%C87%F1%8E%F2%81%AE%AAvzr%DA2%ABV%17%7C%E63%83%E7I%DC%C6%0Bs%1B%EF6%1E%00%00%00%00%00%00%00%00%00%80cr%9CW%FF%7F%C6%01%0E%F1%CE%A5%84%B3%CA%BC%E0%CB%AA%84%CE%F9%BF)%EC%13%08WU%AE%AB%B1%AE%2BO%EC%8E%CBYe%FE%8CN%ABr%5Dy%60~%CFA%0D%F4%AE%D4%BE%C75%CA%EDVB%EA(%B7%F1%09g%E5%D9%12%00%00%00%00%00%00%00%00%00H%F6%EB%13S%E7y%5E%5E%FB%98%F0%22%D1%B2'%A7%F0%92%B1%BC%24z3%AC%7Dm%60%D5%92%B4%7CEUO%5E%F0%AA*%3BU%B9%AE%3E%A0j%94%07%A0%C7%A0%AB%FD%B5%3F%A0%F7%03T%3Dy%D7%F7%D6%D4%C0%AAU%D2%E6%DFt%3F%A8%CC%AA%F2%86%B9%D7%F5%1F%18%E6%01%F8%CC%D5%9E%F0%F3z%88%AA%90%EF%20%00%00%00%00%00%00%00%00%00%C0%A6%D3%EA%CFi%AFb%2C%7BB%0A%2B%C3%1A%D7%06V%D5%07%A8r%5D%3D%D9%A6%CAu%F5%25%CF%A2%99%97zNX%60%95%AB%5DUZ%D5%FBR%03%AB%1C%D4k%9F%3F%BB%5C%FF%81a%AE%AB'%7F%F3%EA%FE%F3z%94%AA%D8%DF%5B%01%00%00%00%00%00%00%00%00%00%8E%FB%F3%F2%B1%1B%8DWU%AAT%A9R%A5J%95*U%AAT%A9R%A5J%95*U%AAT%A9R%A5J%95*U%AAT%A9R%A5J%95*U%AAT%A9R%A5J%95*U%AAT%A9R%A5J%95*U%AAT%A9R%A5J%95*UiU%C7%BBe%E7%F3%B9%CB%AAJ%95*U%AAT%A9R%A5J%95*U%AAT%A9R%A5J%95*U%AAT%A9R%A5J%95*U%AAT%A9R%A5J%95*U%AAT%A9R%A5J%95*U%AAT%A9R%A5J%95*U%AAT%A9R%A5*%AAj%FD%C6%D4%5Eo%90%B5Z%ADV%AB%D5j%B5Z%ADV%AB%D5j%B5Z%ADV%AB%D5j%B5Z%ADV%AB%D5j%B5Z%ADV%AB%D5j%B5Z%ADV%AB%D5j%B5Z%ADV%AB%D5j%B5%86%AF%1B%9F%98%DA%EBm%BBV%AB%D5j%B5Z%ADV%AB%D5j%B5Z%ADV%AB%D5j%B5Z%ADV%AB%D5j%B5Z%ADV%AB%D5j%B5Z%ADV%AB%D5j%B5Z%ADV%AB%D5j%B5Z%AD%D6%E4%F58%01%00%00%00%00%00%00%00%00%00%00%00%00%00%40%85%7F%02%0C%008%C2%D0H%16j%8FX%00%00%00%00IEND%AEB%60%82") repeat-x !important;
    border-top: 1px solid #BBBBBB !important;
    border-right: 1px dashed #BBBBBB !important;
    border-bottom: 1px solid #000000 !important;
}

.firebugRulerV {
    top: 0 !important;
    left: -15px !important;
    width: 14px !important;
    height: 100% !important;
    background: url("data:image/png,%89PNG%0D%0A%1A%0A%00%00%00%0DIHDR%00%00%00%0E%00%00%13%88%08%02%00%00%00%0E%F5%CB%10%00%00%00%04gAMA%00%00%D6%D8%D4OX2%00%00%00%19tEXtSoftware%00Adobe%20ImageReadyq%C9e%3C%00%00%06~IDATx%DA%EC%DD%D1v%A20%14%40Qt%F1%FF%FF%E4%97%D9%07%3BT%19%92%DC%40(%90%EEy%9A5%CB%B6%E8%F6%9Ac%A4%CC0%84%FF%DC%9E%CF%E7%E3%F1%88%DE4%F8%5D%C7%9F%2F%BA%DD%5E%7FI%7D%F18%DDn%BA%C5%FB%DF%97%BFk%F2%10%FF%FD%B4%F2M%A7%FB%FD%FD%B3%22%07p%8F%3F%AE%E3%F4S%8A%8F%40%EEq%9D%BE8D%F0%0EY%A1Uq%B7%EA%1F%81%88V%E8X%3F%B4%CEy%B7h%D1%A2E%EBohU%FC%D9%AF2fO%8BBeD%BE%F7X%0C%97%A4%D6b7%2Ck%A5%12%E3%9B%60v%B7r%C7%1AI%8C%BD%2B%23r%00c0%B2v%9B%AD%CA%26%0C%1Ek%05A%FD%93%D0%2B%A1u%8B%16-%95q%5Ce%DCSO%8E%E4M%23%8B%F7%C2%FE%40%BB%BD%8C%FC%8A%B5V%EBu%40%F9%3B%A72%FA%AE%8C%D4%01%CC%B5%DA%13%9CB%AB%E2I%18%24%B0n%A9%0CZ*Ce%9C%A22%8E%D8NJ%1E%EB%FF%8F%AE%CAP%19*%C3%BAEKe%AC%D1%AAX%8C*%DEH%8F%C5W%A1e%AD%D4%B7%5C%5B%19%C5%DB%0D%EF%9F%19%1D%7B%5E%86%BD%0C%95%A12%AC%5B*%83%96%CAP%19%F62T%86%CAP%19*%83%96%CA%B8Xe%BC%FE)T%19%A1%17xg%7F%DA%CBP%19*%C3%BA%A52T%86%CAP%19%F62T%86%CA%B0n%A9%0CZ%1DV%C6%3D%F3%FCH%DE%B4%B8~%7F%5CZc%F1%D6%1F%AF%84%F9%0F6%E6%EBVt9%0E~%BEr%AF%23%B0%97%A12T%86%CAP%19%B4T%86%CA%B8Re%D8%CBP%19*%C3%BA%A52huX%19%AE%CA%E5%BC%0C%7B%19*CeX%B7h%A9%0C%95%E1%BC%0C%7B%19*CeX%B7T%06%AD%CB%5E%95%2B%BF.%8F%C5%97%D5%E4%7B%EE%82%D6%FB%CF-%9C%FD%B9%CF%3By%7B%19%F62T%86%CA%B0n%D1R%19*%A3%D3%CA%B0%97%A12T%86uKe%D0%EA%B02*%3F1%99%5DB%2B%A4%B5%F8%3A%7C%BA%2B%8Co%7D%5C%EDe%A8%0C%95a%DDR%19%B4T%C66%82fA%B2%ED%DA%9FC%FC%17GZ%06%C9%E1%B3%E5%2C%1A%9FoiB%EB%96%CA%A0%D5qe4%7B%7D%FD%85%F7%5B%ED_%E0s%07%F0k%951%ECr%0D%B5C%D7-g%D1%A8%0C%EB%96%CA%A0%A52T%C6)*%C3%5E%86%CAP%19%D6-%95A%EB*%95q%F8%BB%E3%F9%AB%F6%E21%ACZ%B7%22%B7%9B%3F%02%85%CB%A2%5B%B7%BA%5E%B7%9C%97%E1%BC%0C%EB%16-%95%A12z%AC%0C%BFc%A22T%86uKe%D0%EA%B02V%DD%AD%8A%2B%8CWhe%5E%AF%CF%F5%3B%26%CE%CBh%5C%19%CE%CB%B0%F3%A4%095%A1%CAP%19*Ce%A8%0C%3BO*Ce%A8%0C%95%A12%3A%AD%8C%0A%82%7B%F0v%1F%2FD%A9%5B%9F%EE%EA%26%AF%03%CA%DF9%7B%19*Ce%A8%0C%95%A12T%86%CA%B8Ze%D8%CBP%19*Ce%A8%0C%95%D1ae%EC%F7%89I%E1%B4%D7M%D7P%8BjU%5C%BB%3E%F2%20%D8%CBP%19*Ce%A8%0C%95%A12T%C6%D5*%C3%5E%86%CAP%19*Ce%B4O%07%7B%F0W%7Bw%1C%7C%1A%8C%B3%3B%D1%EE%AA%5C%D6-%EBV%83%80%5E%D0%CA%10%5CU%2BD%E07YU%86%CAP%19*%E3%9A%95%91%D9%A0%C8%AD%5B%EDv%9E%82%FFKOee%E4%8FUe%A8%0C%95%A12T%C6%1F%A9%8C%C8%3D%5B%A5%15%FD%14%22r%E7B%9F%17l%F8%BF%ED%EAf%2B%7F%CF%ECe%D8%CBP%19*Ce%A8%0C%95%E1%93~%7B%19%F62T%86%CAP%19*Ce%A8%0C%E7%13%DA%CBP%19*Ce%A8%0CZf%8B%16-Z%B4h%D1R%19f%8B%16-Z%B4h%D1R%19%B4%CC%16-Z%B4h%D1R%19%B4%CC%16-Z%B4h%D1%A2%A52%CC%16-Z%B4h%D1%A2%A52h%99-Z%B4h%D1%A2%A52h%99-Z%B4h%D1%A2EKe%98-Z%B4h%D1%A2EKe%D02%5B%B4h%D1%A2EKe%D02%5B%B4h%D1%A2E%8B%96%CA0%5B%B4h%D1%A2E%8B%96%CA%A0e%B6h%D1%A2E%8B%96%CA%A0e%B6h%D1%A2E%8B%16-%95a%B6h%D1%A2E%8B%16-%95A%CBl%D1%A2E%8B%16-%95A%CBl%D1%A2E%8B%16-Z*%C3l%D1%A2E%8B%16-Z*%83%96%D9%A2E%8B%16-Z*%83%96%D9%A2E%8B%16-Z%B4T%86%D9%A2E%8B%16-Z%B4T%06-%B3E%8B%16-Z%B4T%06-%B3E%8B%16-Z%B4h%A9%0C%B3E%8B%16-Z%B4h%A9%0CZf%8B%16-Z%B4h%A9%0CZf%8B%16-Z%B4h%D1R%19f%8B%16-Z%B4h%D1R%19%B4%CC%16-Z%B4h%D1R%19%B4%CC%16-Z%B4h%D1%A2%A52%CC%16-Z%B4h%D1%A2%A52h%99-Z%B4h%D1%A2%A52h%99-Z%B4h%D1%A2EKe%98-Z%B4h%D1%A2EKe%D02%5B%B4h%D1%A2EKe%D02%5B%B4h%D1%A2E%8B%96%CA0%5B%B4h%D1%A2E%8B%96%CA%A0e%B6h%D1%A2E%8B%96%CA%A0e%B6h%D1%A2E%8B%16-%95a%B6h%D1%A2E%8B%16-%95A%CBl%D1%A2E%8B%16-%95A%CBl%D1%A2E%8B%16-Z*%C3l%D1%A2E%8B%16-Z*%83%96%D9%A2E%8B%16-Z*%83%96%D9%A2E%8B%16-Z%B4T%86%D9%A2E%8B%16-Z%B4T%06-%B3E%8B%16-Z%B4T%06-%B3E%8B%16-Z%B4h%A9%0C%B3E%8B%16-Z%B4h%A9%0CZf%8B%16-Z%B4h%A9%0CZf%8B%16-Z%B4h%D1R%19f%8B%16-Z%B4h%D1R%19%B4%CC%16-Z%B4h%D1R%19%B4%CC%16-Z%B4h%D1%A2%A52%CC%16-Z%B4h%D1%A2%A52h%99-Z%B4h%D1%A2%A52h%99-Z%B4h%D1%A2EKe%98-Z%B4h%D1%A2EKe%D02%5B%B4h%D1%A2EKe%D02%5B%B4h%D1%A2E%8B%96%CA0%5B%B4h%D1%A2E%8B%96%CA%A0e%B6h%D1%A2E%8B%96%CA%A0e%B6h%D1%A2E%8B%16-%95a%B6h%D1%A2E%8B%16-%95A%CBl%D1%A2E%8B%16-%95A%CBl%D1%A2E%8B%16-Z*%C3l%D1%A2E%8B%16-Z*%83%96%D9%A2E%8B%16-Z*%83%96%D9%A2E%8B%16-Z%B4T%86%D9%A2E%8B%16-Z%B4T%06-%B3E%8B%16-Z%B4%AE%A4%F5%25%C0%00%DE%BF%5C'%0F%DA%B8q%00%00%00%00IEND%AEB%60%82") repeat-y !important;
    border-left: 1px solid #BBBBBB !important;
    border-right: 1px solid #000000 !important;
    border-bottom: 1px dashed #BBBBBB !important;
}

.overflowRulerX &gt; .firebugRulerV {
    left: 0 !important;
}

.overflowRulerY &gt; .firebugRulerH {
    top: 0 !important;
}

/* * * * * * * * * * * * * * * * * * * * * * * * * * * * * * * * * * * * * * * * * * * * * * * * */
.fbProxyElement {
    position: fixed !important;
    pointer-events: auto !important;
}
</style></svg>